<mxfile host="65bd71144e">
    <diagram id="Vanaf956ToXkdfIuTYm2" name="Página-1">
        <mxGraphModel dx="5593" dy="4943" grid="1" gridSize="10" guides="1" tooltips="1" connect="1" arrows="1" fold="1" page="1" pageScale="1" pageWidth="850" pageHeight="1100" math="0" shadow="0">
            <root>
                <mxCell id="0"/>
                <mxCell id="1" parent="0"/>
                <mxCell id="5" value="" style="edgeStyle=none;html=1;" parent="1" source="3" target="4" edge="1">
                    <mxGeometry relative="1" as="geometry"/>
                </mxCell>
                <mxCell id="231" style="edgeStyle=none;html=1;" parent="1" source="3" target="230" edge="1">
                    <mxGeometry relative="1" as="geometry"/>
                </mxCell>
                <mxCell id="233" style="edgeStyle=none;html=1;" parent="1" source="3" target="232" edge="1">
                    <mxGeometry relative="1" as="geometry"/>
                </mxCell>
                <mxCell id="3" value="npm start" style="ellipse;whiteSpace=wrap;html=1;aspect=fixed;fillColor=#008a00;fontStyle=1;strokeColor=#005700;fontColor=#ffffff;" parent="1" vertex="1">
                    <mxGeometry x="240" y="-1010" width="80" height="80" as="geometry"/>
                </mxCell>
                <mxCell id="254" value="" style="edgeStyle=none;html=1;" parent="1" source="230" target="253" edge="1">
                    <mxGeometry relative="1" as="geometry"/>
                </mxCell>
                <mxCell id="230" value="Liga o Consumer do Kafka" style="rounded=1;whiteSpace=wrap;html=1;fillColor=light-dark(#FFFFFF,#EDEDED);" parent="1" vertex="1">
                    <mxGeometry x="510" y="-1830" width="120" height="60" as="geometry"/>
                </mxCell>
                <mxCell id="246" style="edgeStyle=none;html=1;" parent="1" source="232" target="234" edge="1">
                    <mxGeometry relative="1" as="geometry"/>
                </mxCell>
                <mxCell id="232" value="Cria um Bucket no MinIO" style="rounded=1;whiteSpace=wrap;html=1;fillColor=light-dark(#FFFFFF,#EDEDED);" parent="1" vertex="1">
                    <mxGeometry x="-40" y="-1250" width="120" height="60" as="geometry"/>
                </mxCell>
                <mxCell id="247" style="edgeStyle=none;html=1;" parent="1" source="234" target="239" edge="1">
                    <mxGeometry relative="1" as="geometry"/>
                </mxCell>
                <mxCell id="234" value="Envia atravez s3Client usando a função CreateBucketCommand usando o nome do bucket criado como o que já esta setado no .env ou &#39;events&#39;" style="whiteSpace=wrap;html=1;fillColor=light-dark(#FFFFFF,#EDEDED);rounded=1;" parent="1" vertex="1">
                    <mxGeometry x="-330" y="-1280" width="190" height="120" as="geometry"/>
                </mxCell>
                <mxCell id="237" style="edgeStyle=none;html=1;endArrow=none;endFill=0;dashed=1;dashPattern=12 12;" parent="1" source="236" target="232" edge="1">
                    <mxGeometry relative="1" as="geometry"/>
                </mxCell>
                <mxCell id="236" value="&lt;h1 style=&quot;margin-top: 0px;&quot;&gt;Tentativas de Criação&lt;/h1&gt;&lt;p&gt;Esta função faz&amp;nbsp;&lt;span style=&quot;color: rgb(63, 63, 63); background-color: transparent;&quot;&gt;10 tentativas de&amp;nbsp;&lt;/span&gt;&lt;span style=&quot;color: rgb(63, 63, 63); background-color: transparent;&quot;&gt;criar o bucket no MinIO com o intervalo de 3 segundos cada&lt;/span&gt;&lt;/p&gt;" style="text;html=1;whiteSpace=wrap;overflow=hidden;rounded=0;" parent="1" vertex="1">
                    <mxGeometry x="-160" y="-1110" width="180" height="120" as="geometry"/>
                </mxCell>
                <mxCell id="238" value="&lt;font style=&quot;font-size: 30px;&quot;&gt;APP BackEnd&lt;/font&gt;" style="swimlane;whiteSpace=wrap;html=1;startSize=90;" parent="1" vertex="1">
                    <mxGeometry x="-2110" y="-750" width="4820" height="2910" as="geometry"/>
                </mxCell>
                <mxCell id="11" value="" style="edgeStyle=none;html=1;" parent="238" source="4" target="10" edge="1">
                    <mxGeometry relative="1" as="geometry"/>
                </mxCell>
                <mxCell id="13" value="" style="edgeStyle=none;html=1;" parent="238" source="10" target="12" edge="1">
                    <mxGeometry relative="1" as="geometry"/>
                </mxCell>
                <mxCell id="15" value="" style="edgeStyle=none;html=1;" parent="238" source="10" target="14" edge="1">
                    <mxGeometry relative="1" as="geometry"/>
                </mxCell>
                <mxCell id="10" value="Disponibiliza as Rotas" style="rounded=1;whiteSpace=wrap;html=1;fillColor=light-dark(#FFFFFF,#EDEDED);" parent="238" vertex="1">
                    <mxGeometry x="2310" y="538" width="120" height="60" as="geometry"/>
                </mxCell>
                <mxCell id="31" value="" style="edgeStyle=none;html=1;" parent="238" source="12" target="30" edge="1">
                    <mxGeometry relative="1" as="geometry"/>
                </mxCell>
                <mxCell id="35" style="edgeStyle=none;html=1;" parent="238" source="12" target="32" edge="1">
                    <mxGeometry relative="1" as="geometry"/>
                </mxCell>
                <mxCell id="36" style="edgeStyle=none;html=1;" parent="238" source="12" target="33" edge="1">
                    <mxGeometry relative="1" as="geometry"/>
                </mxCell>
                <mxCell id="37" style="edgeStyle=none;html=1;" parent="238" source="12" target="34" edge="1">
                    <mxGeometry relative="1" as="geometry"/>
                </mxCell>
                <mxCell id="12" value="/cameras" style="rounded=1;whiteSpace=wrap;html=1;fillColor=light-dark(#FFFFFF,#EDEDED);" parent="238" vertex="1">
                    <mxGeometry x="2600" y="994" width="120" height="60" as="geometry"/>
                </mxCell>
                <mxCell id="17" value="" style="edgeStyle=none;html=1;" parent="238" source="14" target="16" edge="1">
                    <mxGeometry relative="1" as="geometry"/>
                </mxCell>
                <mxCell id="14" value="/eventos" style="rounded=1;whiteSpace=wrap;html=1;fillColor=light-dark(#FFFFFF,#EDEDED);" parent="238" vertex="1">
                    <mxGeometry x="2080" y="1023" width="120" height="60" as="geometry"/>
                </mxCell>
                <mxCell id="21" value="" style="edgeStyle=orthogonalEdgeStyle;html=1;" parent="238" source="16" target="20" edge="1">
                    <mxGeometry relative="1" as="geometry">
                        <Array as="points">
                            <mxPoint x="1350" y="1051"/>
                            <mxPoint x="1350" y="929"/>
                        </Array>
                    </mxGeometry>
                </mxCell>
                <mxCell id="23" style="html=1;" parent="238" source="16" target="22" edge="1">
                    <mxGeometry relative="1" as="geometry"/>
                </mxCell>
                <mxCell id="26" style="edgeStyle=orthogonalEdgeStyle;html=1;" parent="238" source="16" target="24" edge="1">
                    <mxGeometry relative="1" as="geometry"/>
                </mxCell>
                <mxCell id="27" style="edgeStyle=orthogonalEdgeStyle;html=1;" parent="238" source="16" target="25" edge="1">
                    <mxGeometry relative="1" as="geometry">
                        <Array as="points">
                            <mxPoint x="1350" y="1051"/>
                            <mxPoint x="1350" y="668"/>
                        </Array>
                    </mxGeometry>
                </mxCell>
                <mxCell id="29" style="html=1;elbow=vertical;" parent="238" source="16" target="28" edge="1">
                    <mxGeometry relative="1" as="geometry"/>
                </mxCell>
                <mxCell id="191" style="edgeStyle=none;html=1;" parent="238" source="16" target="190" edge="1">
                    <mxGeometry relative="1" as="geometry"/>
                </mxCell>
                <mxCell id="196" style="html=1;" parent="238" source="16" target="195" edge="1">
                    <mxGeometry relative="1" as="geometry"/>
                </mxCell>
                <mxCell id="16" value="&lt;div&gt;&lt;b&gt;HTTP&lt;/b&gt;&lt;/div&gt;&lt;div&gt;&lt;span style=&quot;background-color: transparent;&quot;&gt;&lt;b&gt;GET&#39;s&lt;/b&gt;&lt;/span&gt;&lt;/div&gt;" style="whiteSpace=wrap;html=1;fillColor=light-dark(#FFFFFF,#EDEDED);rounded=1;" parent="238" vertex="1">
                    <mxGeometry x="1890" y="1021" width="120" height="60" as="geometry"/>
                </mxCell>
                <mxCell id="145" value="" style="edgeStyle=none;html=1;" parent="238" source="20" target="144" edge="1">
                    <mxGeometry relative="1" as="geometry"/>
                </mxCell>
                <mxCell id="20" value="&lt;div&gt;&lt;b&gt;Get All&lt;/b&gt;&lt;/div&gt;&lt;b&gt;endpoint: &quot;/eventos/&quot;&lt;/b&gt;" style="whiteSpace=wrap;html=1;fillColor=light-dark(#FFFFFF,#EDEDED);rounded=1;" parent="238" vertex="1">
                    <mxGeometry x="1170" y="899" width="120" height="60" as="geometry"/>
                </mxCell>
                <mxCell id="156" style="edgeStyle=none;html=1;" parent="238" source="22" target="155" edge="1">
                    <mxGeometry relative="1" as="geometry"/>
                </mxCell>
                <mxCell id="22" value="&lt;div&gt;&lt;b&gt;Buscar Eventos de uma Camera Especifica&lt;/b&gt;&lt;/div&gt;&lt;p&gt;&lt;font style=&quot;color: rgb(0, 0, 0);&quot; face=&quot;Helvetica&quot;&gt;&lt;b&gt;endpoint: &quot;&lt;span style=&quot;font-size: 14px; white-space: pre;&quot;&gt;/eventos/camera/:cameraID&lt;/span&gt;&quot;&lt;/b&gt;&lt;/font&gt;&lt;/p&gt;" style="whiteSpace=wrap;html=1;fillColor=light-dark(#FFFFFF,#EDEDED);rounded=1;" parent="238" vertex="1">
                    <mxGeometry x="1780" y="1638" width="210" height="140" as="geometry"/>
                </mxCell>
                <mxCell id="167" value="" style="edgeStyle=orthogonalEdgeStyle;html=1;" parent="238" source="24" target="168" edge="1">
                    <mxGeometry relative="1" as="geometry">
                        <mxPoint x="1125" y="1718" as="targetPoint"/>
                    </mxGeometry>
                </mxCell>
                <mxCell id="24" value="&lt;div&gt;&lt;b style=&quot;background-color: transparent;&quot;&gt;URL Assinado da imagem de uma Camera associada a um Evento&lt;/b&gt;&lt;/div&gt;&lt;div&gt;&lt;b style=&quot;background-color: transparent;&quot;&gt;endpoint: &quot;&lt;span style=&quot;font-size: 14px; white-space: pre;&quot;&gt;/eventos/:eventId/image-url&lt;/span&gt;&quot;&lt;/b&gt;&lt;/div&gt;" style="whiteSpace=wrap;html=1;fillColor=light-dark(#FFFFFF,#EDEDED);rounded=1;" parent="238" vertex="1">
                    <mxGeometry x="970" y="1200" width="210" height="140" as="geometry"/>
                </mxCell>
                <mxCell id="193" style="edgeStyle=none;html=1;" parent="238" source="25" target="192" edge="1">
                    <mxGeometry relative="1" as="geometry"/>
                </mxCell>
                <mxCell id="25" value="&lt;div&gt;&lt;b&gt;Buscar Evento pelo Id&lt;/b&gt;&lt;/div&gt;&lt;p&gt;&lt;font style=&quot;color: rgb(0, 0, 0);&quot; face=&quot;Helvetica&quot;&gt;&lt;b&gt;endpoint: &quot;&lt;span style=&quot;font-size: 14px; white-space: pre;&quot;&gt;/eventos/:eventId&lt;/span&gt;&quot;&lt;/b&gt;&lt;/font&gt;&lt;/p&gt;" style="whiteSpace=wrap;html=1;fillColor=light-dark(#FFFFFF,#EDEDED);rounded=1;" parent="238" vertex="1">
                    <mxGeometry x="1120" y="598" width="210" height="140" as="geometry"/>
                </mxCell>
                <mxCell id="210" value="" style="edgeStyle=none;html=1;" parent="238" source="28" target="209" edge="1">
                    <mxGeometry relative="1" as="geometry"/>
                </mxCell>
                <mxCell id="28" value="&lt;div&gt;&lt;b style=&quot;background-color: transparent;&quot;&gt;Ultimo Evento por Camera&lt;/b&gt;&lt;/div&gt;&lt;div&gt;&lt;b style=&quot;background-color: transparent;&quot;&gt;&lt;br&gt;&lt;/b&gt;&lt;/div&gt;&lt;div&gt;&lt;b style=&quot;background-color: transparent;&quot;&gt;endpoint:&amp;nbsp;&lt;/b&gt;&lt;/div&gt;&lt;div&gt;&lt;b style=&quot;background-color: transparent;&quot;&gt;&quot;&lt;span style=&quot;font-size: 14px; white-space: pre;&quot;&gt;/eventos/camera/:cameraID/latest&lt;/span&gt;&quot;&lt;/b&gt;&lt;/div&gt;" style="whiteSpace=wrap;html=1;fillColor=light-dark(#FFFFFF,#EDEDED);rounded=1;" parent="238" vertex="1">
                    <mxGeometry x="2150" y="1490" width="300" height="140" as="geometry"/>
                </mxCell>
                <mxCell id="43" value="" style="edgeStyle=none;html=1;" parent="238" source="32" target="44" edge="1">
                    <mxGeometry relative="1" as="geometry">
                        <mxPoint x="3140" y="880" as="targetPoint"/>
                    </mxGeometry>
                </mxCell>
                <mxCell id="46" style="edgeStyle=none;html=1;" parent="238" source="30" target="45" edge="1">
                    <mxGeometry relative="1" as="geometry"/>
                </mxCell>
                <mxCell id="49" style="edgeStyle=none;html=1;" parent="238" source="30" target="47" edge="1">
                    <mxGeometry relative="1" as="geometry"/>
                </mxCell>
                <mxCell id="30" value="HTTP&lt;div&gt;GET&#39;s&lt;/div&gt;" style="rounded=1;whiteSpace=wrap;html=1;fillColor=light-dark(#FFFFFF,#EDEDED);fontStyle=1" parent="238" vertex="1">
                    <mxGeometry x="2890" y="730" width="120" height="60" as="geometry"/>
                </mxCell>
                <mxCell id="32" value="HTTP&lt;div&gt;POST&#39;s&lt;/div&gt;" style="rounded=1;whiteSpace=wrap;html=1;fillColor=light-dark(#FFFFFF,#EDEDED);fontStyle=1" parent="238" vertex="1">
                    <mxGeometry x="2950" y="1024" width="120" height="60" as="geometry"/>
                </mxCell>
                <mxCell id="53" style="edgeStyle=none;html=1;" parent="238" source="33" target="51" edge="1">
                    <mxGeometry relative="1" as="geometry"/>
                </mxCell>
                <mxCell id="33" value="HTTP&lt;div&gt;PUT&#39;s&lt;/div&gt;" style="rounded=1;whiteSpace=wrap;html=1;fillColor=light-dark(#FFFFFF,#EDEDED);fontStyle=1" parent="238" vertex="1">
                    <mxGeometry x="2960" y="1200" width="120" height="60" as="geometry"/>
                </mxCell>
                <mxCell id="54" style="edgeStyle=none;html=1;" parent="238" source="34" target="52" edge="1">
                    <mxGeometry relative="1" as="geometry"/>
                </mxCell>
                <mxCell id="34" value="HTTP&lt;div&gt;DELETE&#39;s&lt;/div&gt;" style="rounded=1;whiteSpace=wrap;html=1;fillColor=light-dark(#FFFFFF,#EDEDED);fontStyle=1" parent="238" vertex="1">
                    <mxGeometry x="2960" y="1600" width="120" height="60" as="geometry"/>
                </mxCell>
                <mxCell id="39" value="&lt;h1 style=&quot;margin-top: 0px;&quot;&gt;Estrutura:&lt;/h1&gt;&lt;div&gt;- RESTFull&lt;/div&gt;&lt;div&gt;- Consultas: Pisma&lt;/div&gt;" style="text;html=1;whiteSpace=wrap;overflow=hidden;rounded=0;" parent="238" vertex="1">
                    <mxGeometry x="2620" y="760" width="130" height="98" as="geometry"/>
                </mxCell>
                <mxCell id="41" value="" style="endArrow=none;dashed=1;html=1;dashPattern=1 3;strokeWidth=2;" parent="238" source="12" target="39" edge="1">
                    <mxGeometry width="50" height="50" relative="1" as="geometry">
                        <mxPoint x="2990" y="1180" as="sourcePoint"/>
                        <mxPoint x="3040" y="1130" as="targetPoint"/>
                    </mxGeometry>
                </mxCell>
                <mxCell id="56" value="" style="edgeStyle=none;html=1;" parent="238" source="44" target="55" edge="1">
                    <mxGeometry relative="1" as="geometry"/>
                </mxCell>
                <mxCell id="44" value="&lt;div&gt;&lt;b&gt;Registrar Camera&lt;/b&gt;&lt;/div&gt;&lt;div&gt;&lt;b&gt;&lt;br&gt;&lt;/b&gt;&lt;/div&gt;&lt;div&gt;&lt;b style=&quot;background-color: transparent;&quot;&gt;endpoint:&amp;nbsp;&lt;/b&gt;&lt;/div&gt;&lt;div&gt;&lt;b style=&quot;background-color: transparent;&quot;&gt;&quot;&lt;span style=&quot;font-size: 14px; white-space: pre;&quot;&gt;/camera/&lt;/span&gt;&quot;&lt;/b&gt;&lt;/div&gt;" style="whiteSpace=wrap;html=1;fillColor=light-dark(#FFFFFF,#EDEDED);rounded=1;" parent="238" vertex="1">
                    <mxGeometry x="3160" y="993" width="160" height="120" as="geometry"/>
                </mxCell>
                <mxCell id="137" value="" style="edgeStyle=none;html=1;" parent="238" source="45" target="136" edge="1">
                    <mxGeometry relative="1" as="geometry"/>
                </mxCell>
                <mxCell id="45" value="&lt;div&gt;&lt;b&gt;Buscar Todas as Cameras&lt;/b&gt;&lt;/div&gt;&lt;div&gt;&lt;b&gt;&lt;br&gt;&lt;/b&gt;&lt;/div&gt;&lt;div&gt;&lt;b style=&quot;background-color: transparent;&quot;&gt;endpoint:&amp;nbsp;&lt;/b&gt;&lt;/div&gt;&lt;div&gt;&lt;b style=&quot;background-color: transparent;&quot;&gt;&quot;&lt;span style=&quot;font-size: 14px; white-space: pre;&quot;&gt;/camera/&lt;/span&gt;&quot;&lt;/b&gt;&lt;/div&gt;" style="whiteSpace=wrap;html=1;fillColor=light-dark(#FFFFFF,#EDEDED);rounded=1;" parent="238" vertex="1">
                    <mxGeometry x="3150" y="812" width="160" height="120" as="geometry"/>
                </mxCell>
                <mxCell id="123" style="html=1;" parent="238" source="47" target="139" edge="1">
                    <mxGeometry relative="1" as="geometry"/>
                </mxCell>
                <mxCell id="47" value="&lt;div&gt;&lt;b&gt;Buscar Camera pelo ID&lt;/b&gt;&lt;/div&gt;&lt;div&gt;&lt;b&gt;&lt;br&gt;&lt;/b&gt;&lt;/div&gt;&lt;div&gt;&lt;b style=&quot;background-color: transparent;&quot;&gt;endpoint:&amp;nbsp;&lt;/b&gt;&lt;/div&gt;&lt;div&gt;&lt;b style=&quot;background-color: transparent;&quot;&gt;&quot;&lt;span style=&quot;font-size: 14px; white-space: pre;&quot;&gt;/camera/:id&lt;/span&gt;&quot;&lt;/b&gt;&lt;/div&gt;" style="whiteSpace=wrap;html=1;fillColor=light-dark(#FFFFFF,#EDEDED);rounded=1;" parent="238" vertex="1">
                    <mxGeometry x="2860" y="446" width="160" height="120" as="geometry"/>
                </mxCell>
                <mxCell id="77" value="" style="edgeStyle=orthogonalEdgeStyle;html=1;" parent="238" source="51" target="76" edge="1">
                    <mxGeometry relative="1" as="geometry"/>
                </mxCell>
                <mxCell id="51" value="&lt;div&gt;&lt;b&gt;Atualizar Camera pelo ID&lt;/b&gt;&lt;/div&gt;&lt;div&gt;&lt;b&gt;&lt;br&gt;&lt;/b&gt;&lt;/div&gt;&lt;div&gt;&lt;b style=&quot;background-color: transparent;&quot;&gt;endpoint:&amp;nbsp;&lt;/b&gt;&lt;/div&gt;&lt;div&gt;&lt;b style=&quot;background-color: transparent;&quot;&gt;&quot;&lt;span style=&quot;font-size: 14px; white-space: pre;&quot;&gt;/camera/:id&lt;/span&gt;&quot;&lt;/b&gt;&lt;/div&gt;" style="whiteSpace=wrap;html=1;fillColor=light-dark(#FFFFFF,#EDEDED);rounded=1;" parent="238" vertex="1">
                    <mxGeometry x="3180" y="1300" width="160" height="120" as="geometry"/>
                </mxCell>
                <mxCell id="109" value="" style="edgeStyle=orthogonalEdgeStyle;html=1;" parent="238" source="52" target="110" edge="1">
                    <mxGeometry relative="1" as="geometry">
                        <mxPoint x="3489.9999999999995" y="1630" as="targetPoint"/>
                    </mxGeometry>
                </mxCell>
                <mxCell id="52" value="&lt;div&gt;&lt;b&gt;Deletar Camera pelo ID&lt;/b&gt;&lt;/div&gt;&lt;div&gt;&lt;b style=&quot;background-color: transparent;&quot;&gt;endpoint:&amp;nbsp;&lt;/b&gt;&lt;/div&gt;&lt;div&gt;&lt;b style=&quot;background-color: transparent;&quot;&gt;&quot;&lt;span style=&quot;font-size: 14px; white-space: pre;&quot;&gt;/camera/:id&lt;/span&gt;&quot;&lt;/b&gt;&lt;/div&gt;" style="whiteSpace=wrap;html=1;fillColor=light-dark(#FFFFFF,#EDEDED);rounded=1;" parent="238" vertex="1">
                    <mxGeometry x="3240" y="1570" width="160" height="120" as="geometry"/>
                </mxCell>
                <mxCell id="58" value="" style="edgeStyle=none;html=1;" parent="238" source="55" target="57" edge="1">
                    <mxGeometry relative="1" as="geometry"/>
                </mxCell>
                <mxCell id="55" value="Estrutura esperada:&lt;blockquote style=&quot;text-align: left;&quot;&gt;&lt;font style=&quot;color: rgb(71, 255, 25);&quot;&gt;{&lt;br&gt;&lt;span style=&quot;white-space: pre;&quot;&gt;&#x9;&lt;/span&gt;&quot;name&quot; :&amp;nbsp;&lt;span style=&quot;white-space: pre;&quot;&gt;&#x9;&lt;/span&gt;String,&lt;br&gt;&lt;span style=&quot;white-space: pre;&quot;&gt;&#x9;&lt;/span&gt;&quot;cameraID&quot; :&amp;nbsp;&lt;span style=&quot;color: rgb(71, 255, 25);&quot;&gt;String,&lt;/span&gt;&lt;br&gt;&lt;span style=&quot;white-space: pre;&quot;&gt;&#x9;&lt;/span&gt;&quot;zona&quot; :&amp;nbsp;&lt;span style=&quot;color: rgb(71, 255, 25);&quot;&gt;String,&lt;/span&gt;&lt;br&gt;&lt;span style=&quot;white-space: pre;&quot;&gt;&#x9;&lt;/span&gt;&quot;enderecoRTSP&quot; :&lt;span style=&quot;color: rgb(71, 255, 25);&quot;&gt;String?&lt;/span&gt;&lt;br&gt;}&lt;/font&gt;&lt;/blockquote&gt;" style="whiteSpace=wrap;html=1;fillColor=light-dark(#FFFFFF,#EDEDED);rounded=1;" parent="238" vertex="1">
                    <mxGeometry x="3415" y="977" width="250" height="154" as="geometry"/>
                </mxCell>
                <mxCell id="84" style="edgeStyle=orthogonalEdgeStyle;html=1;" parent="238" source="57" target="81" edge="1">
                    <mxGeometry relative="1" as="geometry"/>
                </mxCell>
                <mxCell id="57" value="Prisma tenta criar um objeto e envia para o Mongo" style="whiteSpace=wrap;html=1;fillColor=light-dark(#FFFFFF,#EDEDED);rounded=1;" parent="238" vertex="1">
                    <mxGeometry x="3770" y="994" width="185" height="120" as="geometry"/>
                </mxCell>
                <mxCell id="72" value="" style="html=1;" parent="238" source="67" target="71" edge="1">
                    <mxGeometry relative="1" as="geometry"/>
                </mxCell>
                <mxCell id="73" value="Erro" style="edgeLabel;html=1;align=center;verticalAlign=middle;resizable=0;points=[];" parent="72" vertex="1" connectable="0">
                    <mxGeometry x="-0.3624" y="2" relative="1" as="geometry">
                        <mxPoint x="-19" y="-14" as="offset"/>
                    </mxGeometry>
                </mxCell>
                <mxCell id="96" value="" style="edgeStyle=orthogonalEdgeStyle;html=1;" parent="238" source="67" target="95" edge="1">
                    <mxGeometry relative="1" as="geometry"/>
                </mxCell>
                <mxCell id="99" value="PASSOU" style="edgeLabel;html=1;align=center;verticalAlign=middle;resizable=0;points=[];" parent="96" vertex="1" connectable="0">
                    <mxGeometry x="-0.7363" y="2" relative="1" as="geometry">
                        <mxPoint x="20" y="2" as="offset"/>
                    </mxGeometry>
                </mxCell>
                <mxCell id="67" value="Tratamento&amp;nbsp;&lt;div&gt;de&amp;nbsp;&lt;span style=&quot;color: rgb(63, 63, 63); background-color: transparent;&quot;&gt;Erro&lt;/span&gt;&lt;/div&gt;" style="rhombus;whiteSpace=wrap;html=1;fillColor=light-dark(#FFFFFF,#EDEDED);rounded=1;" parent="238" vertex="1">
                    <mxGeometry x="3389" y="538" width="116" height="116" as="geometry"/>
                </mxCell>
                <mxCell id="71" value="Log da Mensagem do Erro no terminal&lt;div&gt;&lt;span style=&quot;color: rgb(0, 0, 0);&quot;&gt;HTTP Code: 400&lt;/span&gt;&lt;/div&gt;" style="whiteSpace=wrap;html=1;fillColor=#FF4949;rounded=1;strokeColor=#b85450;" parent="238" vertex="1">
                    <mxGeometry x="3550" y="720" width="130" height="80" as="geometry"/>
                </mxCell>
                <mxCell id="89" style="edgeStyle=orthogonalEdgeStyle;html=1;" parent="238" source="76" target="87" edge="1">
                    <mxGeometry relative="1" as="geometry">
                        <mxPoint x="3680" y="1196" as="targetPoint"/>
                        <Array as="points">
                            <mxPoint x="3540" y="1270"/>
                        </Array>
                    </mxGeometry>
                </mxCell>
                <mxCell id="76" value="&lt;b&gt;PRISMA&lt;/b&gt; faz uma query WHERE passando o Parametro Id e o Body da Requisição" style="whiteSpace=wrap;html=1;fillColor=light-dark(#FFFFFF,#EDEDED);rounded=1;" parent="238" vertex="1">
                    <mxGeometry x="3410" y="1315" width="180" height="90" as="geometry"/>
                </mxCell>
                <mxCell id="79" value="" style="edgeStyle=orthogonalEdgeStyle;html=1;" parent="238" source="81" target="71" edge="1">
                    <mxGeometry relative="1" as="geometry">
                        <mxPoint x="4450" y="1180" as="targetPoint"/>
                    </mxGeometry>
                </mxCell>
                <mxCell id="80" value="Erro" style="edgeLabel;html=1;align=center;verticalAlign=middle;resizable=0;points=[];" parent="79" vertex="1" connectable="0">
                    <mxGeometry x="-0.3624" y="2" relative="1" as="geometry">
                        <mxPoint x="112" y="-2" as="offset"/>
                    </mxGeometry>
                </mxCell>
                <mxCell id="81" value="Tratamento&amp;nbsp;&lt;div&gt;de&amp;nbsp;&lt;span style=&quot;color: rgb(63, 63, 63); background-color: transparent;&quot;&gt;Erro&lt;/span&gt;&lt;/div&gt;" style="rhombus;whiteSpace=wrap;html=1;fillColor=light-dark(#FFFFFF,#EDEDED);rounded=1;" parent="238" vertex="1">
                    <mxGeometry x="3804.5" y="702" width="116" height="116" as="geometry"/>
                </mxCell>
                <mxCell id="82" style="edgeStyle=orthogonalEdgeStyle;html=1;" parent="238" source="81" target="93" edge="1">
                    <mxGeometry relative="1" as="geometry">
                        <mxPoint x="4900" y="710" as="targetPoint"/>
                    </mxGeometry>
                </mxCell>
                <mxCell id="83" value="PASSOU" style="edgeLabel;html=1;align=center;verticalAlign=middle;resizable=0;points=[];" parent="82" vertex="1" connectable="0">
                    <mxGeometry x="-0.9226" y="-4" relative="1" as="geometry">
                        <mxPoint x="44" y="-6" as="offset"/>
                    </mxGeometry>
                </mxCell>
                <mxCell id="92" value="" style="html=1;exitX=0.399;exitY=0.871;exitDx=0;exitDy=0;exitPerimeter=0;" parent="238" source="87" target="91" edge="1">
                    <mxGeometry relative="1" as="geometry"/>
                </mxCell>
                <mxCell id="101" value="NÃO EXISTE&amp;nbsp;&lt;div&gt;CAMERA COM&amp;nbsp;&lt;/div&gt;&lt;div&gt;ESSE ID&lt;/div&gt;" style="edgeLabel;html=1;align=center;verticalAlign=middle;resizable=0;points=[];" parent="92" vertex="1" connectable="0">
                    <mxGeometry x="-0.4945" y="2" relative="1" as="geometry">
                        <mxPoint x="-15" y="24" as="offset"/>
                    </mxGeometry>
                </mxCell>
                <mxCell id="103" value="" style="html=1;" parent="238" source="87" target="102" edge="1">
                    <mxGeometry relative="1" as="geometry"/>
                </mxCell>
                <mxCell id="104" value="ERRO" style="edgeLabel;html=1;align=center;verticalAlign=middle;resizable=0;points=[];" parent="103" vertex="1" connectable="0">
                    <mxGeometry x="-0.2611" y="-1" relative="1" as="geometry">
                        <mxPoint as="offset"/>
                    </mxGeometry>
                </mxCell>
                <mxCell id="106" style="edgeStyle=orthogonalEdgeStyle;html=1;" parent="238" source="87" target="105" edge="1">
                    <mxGeometry relative="1" as="geometry"/>
                </mxCell>
                <mxCell id="87" value="Tratamento&amp;nbsp;&lt;div&gt;de&amp;nbsp;&lt;span style=&quot;color: rgb(63, 63, 63); background-color: transparent;&quot;&gt;Erro&lt;/span&gt;&lt;/div&gt;" style="rhombus;whiteSpace=wrap;html=1;fillColor=light-dark(#FFFFFF,#EDEDED);rounded=1;" parent="238" vertex="1">
                    <mxGeometry x="3820" y="1212" width="116" height="116" as="geometry"/>
                </mxCell>
                <mxCell id="88" value="PASSOU" style="edgeLabel;html=1;align=center;verticalAlign=middle;resizable=0;points=[];" parent="238" vertex="1" connectable="0">
                    <mxGeometry x="3970.0041176470577" y="1270" as="geometry">
                        <mxPoint y="-3" as="offset"/>
                    </mxGeometry>
                </mxCell>
                <mxCell id="91" value="&lt;span style=&quot;color: rgb(0, 0, 0);&quot;&gt;Log da Mensagem do Erro no terminal&lt;/span&gt;&lt;div&gt;&lt;span style=&quot;color: rgb(0, 0, 0);&quot;&gt;HTTP Code: 404&lt;/span&gt;&lt;/div&gt;" style="whiteSpace=wrap;html=1;fillColor=#FF4949;rounded=1;strokeColor=#b85450;" parent="238" vertex="1">
                    <mxGeometry x="3684.5" y="1400" width="120" height="60" as="geometry"/>
                </mxCell>
                <mxCell id="94" style="html=1;endArrow=none;endFill=0;dashed=1;dashPattern=12 12;strokeWidth=2;" parent="238" source="93" target="60" edge="1">
                    <mxGeometry relative="1" as="geometry"/>
                </mxCell>
                <mxCell id="93" value="Registra camera no Mongo" style="rounded=1;whiteSpace=wrap;html=1;fillColor=#d5e8d4;strokeColor=#82b366;" parent="238" vertex="1">
                    <mxGeometry x="4050" y="882" width="120" height="60" as="geometry"/>
                </mxCell>
                <mxCell id="100" style="html=1;endArrow=none;endFill=0;dashed=1;dashPattern=12 12;strokeWidth=2;" parent="238" source="95" target="60" edge="1">
                    <mxGeometry relative="1" as="geometry"/>
                </mxCell>
                <mxCell id="95" value="Consulta todos os registros de cameras no Mongo" style="whiteSpace=wrap;html=1;fillColor=#d5e8d4;rounded=1;strokeColor=#82b366;" parent="238" vertex="1">
                    <mxGeometry x="3835" y="566" width="120" height="60" as="geometry"/>
                </mxCell>
                <mxCell id="102" value="&lt;span style=&quot;color: rgb(0, 0, 0);&quot;&gt;Log da Mensagem do Erro no terminal&lt;/span&gt;&lt;div&gt;&lt;span style=&quot;color: rgb(0, 0, 0);&quot;&gt;&lt;span style=&quot;color: rgb(0, 0, 0);&quot;&gt;HTTP Code: 400&lt;/span&gt;&lt;/span&gt;&lt;/div&gt;" style="whiteSpace=wrap;html=1;fillColor=#FF4949;rounded=1;strokeColor=#b85450;" parent="238" vertex="1">
                    <mxGeometry x="3930" y="1420" width="120" height="60" as="geometry"/>
                </mxCell>
                <mxCell id="107" style="html=1;endArrow=none;endFill=0;dashed=1;dashPattern=12 12;strokeWidth=2;" parent="238" source="105" target="60" edge="1">
                    <mxGeometry relative="1" as="geometry"/>
                </mxCell>
                <mxCell id="105" value="Atualização do Registro no Mongo" style="rounded=1;whiteSpace=wrap;html=1;fillColor=#d5e8d4;strokeColor=#82b366;" parent="238" vertex="1">
                    <mxGeometry x="4060" y="1240" width="120" height="60" as="geometry"/>
                </mxCell>
                <mxCell id="117" style="edgeStyle=orthogonalEdgeStyle;html=1;" parent="238" source="110" target="116" edge="1">
                    <mxGeometry relative="1" as="geometry"/>
                </mxCell>
                <mxCell id="110" value="&lt;b style=&quot;color: rgb(63, 63, 63); scrollbar-color: rgb(226, 226, 226) rgb(251, 251, 251);&quot;&gt;PRISMA&lt;/b&gt;&lt;span style=&quot;color: rgb(0, 0, 0);&quot;&gt;&amp;nbsp;faz&amp;nbsp;&lt;/span&gt;uma query WHERE passando o Parametro Id" style="whiteSpace=wrap;html=1;fillColor=light-dark(#FFFFFF,#EDEDED);rounded=1;" parent="238" vertex="1">
                    <mxGeometry x="3505" y="1600" width="120" height="60" as="geometry"/>
                </mxCell>
                <mxCell id="112" value="" style="html=1;" parent="238" source="116" target="91" edge="1">
                    <mxGeometry relative="1" as="geometry">
                        <mxPoint x="3760" y="1738" as="targetPoint"/>
                    </mxGeometry>
                </mxCell>
                <mxCell id="113" value="NÃO EXISTE&amp;nbsp;&lt;div&gt;CAMERA COM&amp;nbsp;&lt;/div&gt;&lt;div&gt;ESSE ID&lt;/div&gt;" style="edgeLabel;html=1;align=center;verticalAlign=middle;resizable=0;points=[];" parent="112" vertex="1" connectable="0">
                    <mxGeometry x="-0.4945" y="2" relative="1" as="geometry">
                        <mxPoint x="-12" y="-14" as="offset"/>
                    </mxGeometry>
                </mxCell>
                <mxCell id="114" value="" style="html=1;" parent="238" source="116" target="102" edge="1">
                    <mxGeometry relative="1" as="geometry">
                        <mxPoint x="3955" y="1758" as="targetPoint"/>
                    </mxGeometry>
                </mxCell>
                <mxCell id="115" value="ERRO" style="edgeLabel;html=1;align=center;verticalAlign=middle;resizable=0;points=[];" parent="114" vertex="1" connectable="0">
                    <mxGeometry x="-0.2611" y="-1" relative="1" as="geometry">
                        <mxPoint as="offset"/>
                    </mxGeometry>
                </mxCell>
                <mxCell id="119" value="" style="edgeStyle=orthogonalEdgeStyle;html=1;" parent="238" source="116" target="118" edge="1">
                    <mxGeometry relative="1" as="geometry"/>
                </mxCell>
                <mxCell id="120" value="PASSOU" style="edgeLabel;html=1;align=center;verticalAlign=middle;resizable=0;points=[];" parent="119" vertex="1" connectable="0">
                    <mxGeometry x="-0.4295" y="-2" relative="1" as="geometry">
                        <mxPoint as="offset"/>
                    </mxGeometry>
                </mxCell>
                <mxCell id="116" value="Tratamento&amp;nbsp;&lt;div&gt;de&amp;nbsp;&lt;span style=&quot;color: rgb(63, 63, 63); background-color: transparent;&quot;&gt;Erro&lt;/span&gt;&lt;/div&gt;" style="rhombus;whiteSpace=wrap;html=1;fillColor=light-dark(#FFFFFF,#EDEDED);rounded=1;" parent="238" vertex="1">
                    <mxGeometry x="3818" y="1571" width="116" height="116" as="geometry"/>
                </mxCell>
                <mxCell id="121" style="html=1;endArrow=none;endFill=0;dashed=1;dashPattern=12 12;strokeWidth=2;" parent="238" source="118" target="60" edge="1">
                    <mxGeometry relative="1" as="geometry"/>
                </mxCell>
                <mxCell id="118" value="Deleta o Registro no Mongo" style="whiteSpace=wrap;html=1;fillColor=#d5e8d4;rounded=1;strokeColor=#82b366;" parent="238" vertex="1">
                    <mxGeometry x="4080" y="1599" width="120" height="60" as="geometry"/>
                </mxCell>
                <mxCell id="125" style="html=1;" parent="238" source="122" target="130" edge="1">
                    <mxGeometry relative="1" as="geometry">
                        <mxPoint x="3193.1159420289855" y="260" as="targetPoint"/>
                    </mxGeometry>
                </mxCell>
                <mxCell id="126" value="ERRO" style="edgeLabel;html=1;align=center;verticalAlign=middle;resizable=0;points=[];" parent="125" vertex="1" connectable="0">
                    <mxGeometry x="-0.1734" y="2" relative="1" as="geometry">
                        <mxPoint x="10" as="offset"/>
                    </mxGeometry>
                </mxCell>
                <mxCell id="128" value="" style="edgeStyle=orthogonalEdgeStyle;html=1;" parent="238" source="122" target="127" edge="1">
                    <mxGeometry relative="1" as="geometry"/>
                </mxCell>
                <mxCell id="134" value="PASSOU" style="edgeLabel;html=1;align=center;verticalAlign=middle;resizable=0;points=[];" parent="128" vertex="1" connectable="0">
                    <mxGeometry x="-0.5976" y="-2" relative="1" as="geometry">
                        <mxPoint as="offset"/>
                    </mxGeometry>
                </mxCell>
                <mxCell id="132" style="html=1;" parent="238" source="122" target="129" edge="1">
                    <mxGeometry relative="1" as="geometry"/>
                </mxCell>
                <mxCell id="133" value="&lt;span style=&quot;color: rgb(0, 0, 0);&quot;&gt;NÃO EXISTE&amp;nbsp;&lt;/span&gt;&lt;div style=&quot;color: rgb(63, 63, 63); scrollbar-color: rgb(226, 226, 226) rgb(251, 251, 251);&quot;&gt;CAMERA COM&amp;nbsp;&lt;/div&gt;&lt;div style=&quot;color: rgb(63, 63, 63); scrollbar-color: rgb(226, 226, 226) rgb(251, 251, 251);&quot;&gt;ESSE ID&lt;/div&gt;" style="edgeLabel;html=1;align=center;verticalAlign=middle;resizable=0;points=[];" parent="132" vertex="1" connectable="0">
                    <mxGeometry x="-0.0698" y="2" relative="1" as="geometry">
                        <mxPoint as="offset"/>
                    </mxGeometry>
                </mxCell>
                <mxCell id="122" value="Tratamento&amp;nbsp;&lt;div&gt;de&amp;nbsp;&lt;span style=&quot;color: rgb(63, 63, 63); background-color: transparent;&quot;&gt;Erro&lt;/span&gt;&lt;/div&gt;" style="rhombus;whiteSpace=wrap;html=1;fillColor=light-dark(#FFFFFF,#EDEDED);rounded=1;" parent="238" vertex="1">
                    <mxGeometry x="3204" y="300" width="116" height="116" as="geometry"/>
                </mxCell>
                <mxCell id="135" style="html=1;endArrow=none;endFill=0;dashed=1;dashPattern=12 12;strokeWidth=2;" parent="238" source="127" target="60" edge="1">
                    <mxGeometry relative="1" as="geometry"/>
                </mxCell>
                <mxCell id="127" value="Consulta o Registro no Mongo" style="whiteSpace=wrap;html=1;fillColor=#d5e8d4;rounded=1;strokeColor=#82b366;" parent="238" vertex="1">
                    <mxGeometry x="3830" y="328" width="120" height="60" as="geometry"/>
                </mxCell>
                <mxCell id="129" value="&lt;span style=&quot;color: rgb(0, 0, 0);&quot;&gt;Log da Mensagem do Erro no terminal&lt;/span&gt;&lt;div&gt;&lt;span style=&quot;color: rgb(0, 0, 0);&quot;&gt;HTTP Code: 404&lt;/span&gt;&lt;/div&gt;" style="whiteSpace=wrap;html=1;fillColor=#FF4949;rounded=1;strokeColor=#b85450;" parent="238" vertex="1">
                    <mxGeometry x="3100" y="160" width="120" height="60" as="geometry"/>
                </mxCell>
                <mxCell id="130" value="&lt;span style=&quot;color: rgb(0, 0, 0);&quot;&gt;Log da Mensagem do Erro no terminal&lt;/span&gt;&lt;div&gt;&lt;span style=&quot;color: rgb(0, 0, 0);&quot;&gt;&lt;span style=&quot;color: rgb(0, 0, 0);&quot;&gt;HTTP Code: 400&lt;/span&gt;&lt;/span&gt;&lt;/div&gt;" style="whiteSpace=wrap;html=1;fillColor=#FF4949;rounded=1;strokeColor=#b85450;" parent="238" vertex="1">
                    <mxGeometry x="3335.5" y="200" width="120" height="60" as="geometry"/>
                </mxCell>
                <mxCell id="60" value="Mongo" style="rounded=1;whiteSpace=wrap;html=1;fillColor=#0050ef;strokeColor=#001DBC;fontColor=#ffffff;fontSize=20;fontStyle=1" parent="238" vertex="1">
                    <mxGeometry x="4560" y="870" width="120" height="60" as="geometry"/>
                </mxCell>
                <mxCell id="61" value="ClickHouse" style="rounded=1;whiteSpace=wrap;html=1;fillColor=#0050ef;strokeColor=#001DBC;fontColor=#ffffff;fontSize=20;fontStyle=1" parent="238" vertex="1">
                    <mxGeometry x="260" y="1578" width="120" height="60" as="geometry"/>
                </mxCell>
                <mxCell id="138" style="edgeStyle=none;html=1;" parent="238" source="136" target="67" edge="1">
                    <mxGeometry relative="1" as="geometry"/>
                </mxCell>
                <mxCell id="136" value="&lt;p&gt;&lt;font style=&quot;color: rgb(0, 0, 0);&quot;&gt;&lt;span&gt;&lt;b&gt;PRISMA &lt;/b&gt;faz um&amp;nbsp;&lt;font&gt;&lt;b&gt;findMany &lt;/b&gt;e&amp;nbsp;&lt;/font&gt;&lt;/span&gt;&lt;span style=&quot;background-color: transparent;&quot;&gt;todos os registros das cameras, e organiza o output por ordem decrescente de criação&lt;/span&gt;&lt;/font&gt;&lt;/p&gt;" style="whiteSpace=wrap;html=1;fillColor=light-dark(#FFFFFF,#EDEDED);rounded=1;" parent="238" vertex="1">
                    <mxGeometry x="3350" y="810" width="170" height="120" as="geometry"/>
                </mxCell>
                <mxCell id="140" style="edgeStyle=none;html=1;" parent="238" source="139" target="122" edge="1">
                    <mxGeometry relative="1" as="geometry"/>
                </mxCell>
                <mxCell id="139" value="&lt;p&gt;&lt;font style=&quot;color: rgb(0, 0, 0);&quot;&gt;&lt;b&gt;PRISMA &lt;/b&gt;faz um&amp;nbsp;&lt;font&gt;&lt;b&gt;findUnique +&amp;nbsp; WHERE &lt;/b&gt;com o parametro id passado.&lt;/font&gt;&lt;/font&gt;&lt;/p&gt;" style="whiteSpace=wrap;html=1;fillColor=light-dark(#FFFFFF,#EDEDED);rounded=1;" parent="238" vertex="1">
                    <mxGeometry x="3090" y="450" width="170" height="120" as="geometry"/>
                </mxCell>
                <mxCell id="141" value="&lt;h1 style=&quot;margin-top: 0px;&quot;&gt;Estrutura:&lt;/h1&gt;&lt;div&gt;- Consultas: Axios&lt;/div&gt;" style="text;html=1;whiteSpace=wrap;overflow=hidden;rounded=0;" parent="238" vertex="1">
                    <mxGeometry x="1970" y="810" width="130" height="98" as="geometry"/>
                </mxCell>
                <mxCell id="143" value="" style="endArrow=none;dashed=1;html=1;dashPattern=1 3;strokeWidth=2;" parent="238" source="141" target="14" edge="1">
                    <mxGeometry width="50" height="50" relative="1" as="geometry">
                        <mxPoint x="2672" y="1004" as="sourcePoint"/>
                        <mxPoint x="2677" y="940" as="targetPoint"/>
                    </mxGeometry>
                </mxCell>
                <mxCell id="150" style="edgeStyle=none;html=1;" parent="238" source="144" target="148" edge="1">
                    <mxGeometry relative="1" as="geometry">
                        <mxPoint x="846" y="929" as="targetPoint"/>
                    </mxGeometry>
                </mxCell>
                <mxCell id="144" value="O &lt;b&gt;AXIOS s&lt;/b&gt;eleciona todos os registros da tabela `events`&amp;nbsp;" style="whiteSpace=wrap;html=1;fillColor=light-dark(#FFFFFF,#EDEDED);rounded=1;" parent="238" vertex="1">
                    <mxGeometry x="970" y="899" width="120" height="60" as="geometry"/>
                </mxCell>
                <mxCell id="146" value="" style="html=1;" parent="238" source="148" target="149" edge="1">
                    <mxGeometry relative="1" as="geometry">
                        <mxPoint x="785.9285714285716" y="984.9285714285716" as="sourcePoint"/>
                    </mxGeometry>
                </mxCell>
                <mxCell id="147" value="ERRO" style="edgeLabel;html=1;align=center;verticalAlign=middle;resizable=0;points=[];" parent="146" vertex="1" connectable="0">
                    <mxGeometry x="-0.3624" y="2" relative="1" as="geometry">
                        <mxPoint x="-6" y="-1" as="offset"/>
                    </mxGeometry>
                </mxCell>
                <mxCell id="152" value="" style="edgeStyle=none;html=1;" parent="238" source="148" target="151" edge="1">
                    <mxGeometry relative="1" as="geometry">
                        <mxPoint x="730" y="929" as="sourcePoint"/>
                    </mxGeometry>
                </mxCell>
                <mxCell id="153" value="PASSOU" style="edgeLabel;html=1;align=center;verticalAlign=middle;resizable=0;points=[];" parent="152" vertex="1" connectable="0">
                    <mxGeometry x="-0.094" y="4" relative="1" as="geometry">
                        <mxPoint x="-5" y="-5" as="offset"/>
                    </mxGeometry>
                </mxCell>
                <mxCell id="148" value="Tratamento&amp;nbsp;&lt;div&gt;de&amp;nbsp;&lt;span style=&quot;color: rgb(63, 63, 63); background-color: transparent;&quot;&gt;Erro&lt;/span&gt;&lt;/div&gt;" style="rhombus;whiteSpace=wrap;html=1;fillColor=light-dark(#FFFFFF,#EDEDED);rounded=1;" parent="238" vertex="1">
                    <mxGeometry x="723" y="868" width="116" height="116" as="geometry"/>
                </mxCell>
                <mxCell id="149" value="Log da Mensagem do Erro no terminal&lt;div&gt;&lt;span style=&quot;color: rgb(0, 0, 0);&quot;&gt;HTTP Code: 400&lt;/span&gt;&lt;/div&gt;" style="whiteSpace=wrap;html=1;fillColor=#FF4949;rounded=1;strokeColor=#b85450;" parent="238" vertex="1">
                    <mxGeometry x="716" y="1078" width="130" height="80" as="geometry"/>
                </mxCell>
                <mxCell id="154" style="edgeStyle=orthogonalEdgeStyle;html=1;endArrow=none;endFill=0;dashed=1;dashPattern=12 12;strokeWidth=2;" parent="238" source="151" target="61" edge="1">
                    <mxGeometry relative="1" as="geometry"/>
                </mxCell>
                <mxCell id="151" value="Exibe os Registros" style="whiteSpace=wrap;html=1;fillColor=#d5e8d4;rounded=1;strokeColor=#82b366;" parent="238" vertex="1">
                    <mxGeometry x="500" y="899" width="120" height="60" as="geometry"/>
                </mxCell>
                <mxCell id="159" style="html=1;" parent="238" source="155" target="203" edge="1">
                    <mxGeometry relative="1" as="geometry"/>
                </mxCell>
                <mxCell id="155" value="O &lt;b&gt;AXIOS s&lt;/b&gt;eleciona todos os registros da tabela `events`&amp;nbsp; que possuem o parametro :cameraID como valor" style="whiteSpace=wrap;html=1;fillColor=light-dark(#FFFFFF,#EDEDED);rounded=1;" parent="238" vertex="1">
                    <mxGeometry x="1780" y="1806" width="190" height="110" as="geometry"/>
                </mxCell>
                <mxCell id="160" style="edgeStyle=none;html=1;" parent="238" source="158" target="149" edge="1">
                    <mxGeometry relative="1" as="geometry"/>
                </mxCell>
                <mxCell id="161" value="ERRO" style="edgeLabel;html=1;align=center;verticalAlign=middle;resizable=0;points=[];" parent="160" vertex="1" connectable="0">
                    <mxGeometry x="-0.1091" y="-1" relative="1" as="geometry">
                        <mxPoint as="offset"/>
                    </mxGeometry>
                </mxCell>
                <mxCell id="163" value="" style="edgeStyle=none;html=1;" parent="238" source="158" target="162" edge="1">
                    <mxGeometry relative="1" as="geometry"/>
                </mxCell>
                <mxCell id="164" value="PASSOU" style="edgeLabel;html=1;align=center;verticalAlign=middle;resizable=0;points=[];" parent="163" vertex="1" connectable="0">
                    <mxGeometry x="-0.4449" y="2" relative="1" as="geometry">
                        <mxPoint as="offset"/>
                    </mxGeometry>
                </mxCell>
                <mxCell id="158" value="Tratamento&amp;nbsp;&lt;div&gt;de&amp;nbsp;&lt;span style=&quot;color: rgb(63, 63, 63); background-color: transparent;&quot;&gt;Erro&lt;/span&gt;&lt;/div&gt;" style="rhombus;whiteSpace=wrap;html=1;fillColor=light-dark(#FFFFFF,#EDEDED);rounded=1;" parent="238" vertex="1">
                    <mxGeometry x="723" y="1283" width="116" height="116" as="geometry"/>
                </mxCell>
                <mxCell id="165" style="edgeStyle=orthogonalEdgeStyle;html=1;endArrow=none;endFill=0;dashed=1;dashPattern=12 12;strokeWidth=2;exitX=0.5;exitY=1;exitDx=0;exitDy=0;" parent="238" source="162" target="61" edge="1">
                    <mxGeometry relative="1" as="geometry">
                        <Array as="points">
                            <mxPoint x="560" y="1608"/>
                        </Array>
                    </mxGeometry>
                </mxCell>
                <mxCell id="162" value="Busca o Registro" style="whiteSpace=wrap;html=1;fillColor=#d5e8d4;rounded=1;strokeColor=#82b366;" parent="238" vertex="1">
                    <mxGeometry x="500" y="1308" width="120" height="60" as="geometry"/>
                </mxCell>
                <mxCell id="175" style="edgeStyle=none;html=1;" parent="238" source="168" target="174" edge="1">
                    <mxGeometry relative="1" as="geometry"/>
                </mxCell>
                <mxCell id="168" value="O &lt;b&gt;AXIOS s&lt;/b&gt;eleciona todos os registros da tabela `events`&amp;nbsp; que possuem o parametro :eventId como valor" style="whiteSpace=wrap;html=1;fillColor=light-dark(#FFFFFF,#EDEDED);rounded=1;" parent="238" vertex="1">
                    <mxGeometry x="880" y="1660" width="190" height="110" as="geometry"/>
                </mxCell>
                <mxCell id="171" value="Log da Mensagem do Erro no terminal&lt;div&gt;&lt;span style=&quot;color: rgb(0, 0, 0);&quot;&gt;HTTP Code: 400&lt;/span&gt;&lt;/div&gt;" style="whiteSpace=wrap;html=1;fillColor=#FF4949;rounded=1;strokeColor=#b85450;" parent="238" vertex="1">
                    <mxGeometry x="660" y="1930" width="130" height="80" as="geometry"/>
                </mxCell>
                <mxCell id="172" style="edgeStyle=none;html=1;" parent="238" source="174" target="171" edge="1">
                    <mxGeometry relative="1" as="geometry"/>
                </mxCell>
                <mxCell id="173" value="ERRO" style="edgeLabel;html=1;align=center;verticalAlign=middle;resizable=0;points=[];" parent="172" vertex="1" connectable="0">
                    <mxGeometry x="-0.1091" y="-1" relative="1" as="geometry">
                        <mxPoint as="offset"/>
                    </mxGeometry>
                </mxCell>
                <mxCell id="177" value="" style="edgeStyle=none;html=1;" parent="238" source="174" target="179" edge="1">
                    <mxGeometry relative="1" as="geometry"/>
                </mxCell>
                <mxCell id="178" value="NÃO EXISTE ESTE&amp;nbsp;&lt;div&gt;eventID&amp;nbsp;&lt;/div&gt;&lt;div&gt;NO CLICKHOUSE&lt;/div&gt;" style="edgeLabel;html=1;align=center;verticalAlign=middle;resizable=0;points=[];" parent="177" vertex="1" connectable="0">
                    <mxGeometry x="-0.4392" y="-1" relative="1" as="geometry">
                        <mxPoint x="20" y="-11" as="offset"/>
                    </mxGeometry>
                </mxCell>
                <mxCell id="180" style="edgeStyle=none;html=1;" parent="238" source="174" target="176" edge="1">
                    <mxGeometry relative="1" as="geometry"/>
                </mxCell>
                <mxCell id="181" value="PASSOU" style="edgeLabel;html=1;align=center;verticalAlign=middle;resizable=0;points=[];" parent="180" vertex="1" connectable="0">
                    <mxGeometry x="-0.1296" y="-2" relative="1" as="geometry">
                        <mxPoint as="offset"/>
                    </mxGeometry>
                </mxCell>
                <mxCell id="174" value="Tratamento&amp;nbsp;&lt;div&gt;de&amp;nbsp;&lt;span style=&quot;color: rgb(63, 63, 63); background-color: transparent;&quot;&gt;Erro&lt;/span&gt;&lt;/div&gt;" style="rhombus;whiteSpace=wrap;html=1;fillColor=light-dark(#FFFFFF,#EDEDED);rounded=1;" parent="238" vertex="1">
                    <mxGeometry x="920" y="1912" width="116" height="116" as="geometry"/>
                </mxCell>
                <mxCell id="184" value="" style="edgeStyle=none;html=1;" parent="238" source="176" target="183" edge="1">
                    <mxGeometry relative="1" as="geometry"/>
                </mxCell>
                <mxCell id="176" value="const imagePath&lt;div&gt;=&lt;/div&gt;&lt;div&gt;Armazena as informações que recebeu da consulta do &lt;b&gt;ClickHouse&lt;/b&gt;&lt;/div&gt;" style="whiteSpace=wrap;html=1;fillColor=light-dark(#FFFFFF,#EDEDED);rounded=1;" parent="238" vertex="1">
                    <mxGeometry x="885" y="2108" width="186" height="134" as="geometry"/>
                </mxCell>
                <mxCell id="179" value="&lt;span style=&quot;color: rgb(0, 0, 0);&quot;&gt;Log da Mensagem do Erro no terminal&lt;/span&gt;&lt;div&gt;&lt;span style=&quot;color: rgb(0, 0, 0);&quot;&gt;HTTP Code: 404&lt;/span&gt;&lt;/div&gt;" style="whiteSpace=wrap;html=1;fillColor=#FF4949;rounded=1;strokeColor=#b85450;" parent="238" vertex="1">
                    <mxGeometry x="1170" y="1968" width="120" height="60" as="geometry"/>
                </mxCell>
                <mxCell id="186" value="" style="edgeStyle=none;html=1;" parent="238" source="183" target="185" edge="1">
                    <mxGeometry relative="1" as="geometry"/>
                </mxCell>
                <mxCell id="183" value="&lt;div&gt;const command&lt;/div&gt;&lt;div&gt;=&lt;/div&gt;Monta um objeto que vai armazenar um parametro para consulta com o GetObjectCommand():&lt;div&gt;Bucket: events&lt;/div&gt;&lt;div&gt;Chave: imagePath&lt;/div&gt;" style="whiteSpace=wrap;html=1;fillColor=light-dark(#FFFFFF,#EDEDED);rounded=1;" parent="238" vertex="1">
                    <mxGeometry x="885" y="2348" width="186" height="134" as="geometry"/>
                </mxCell>
                <mxCell id="187" style="edgeStyle=orthogonalEdgeStyle;html=1;endArrow=none;endFill=0;dashed=1;dashPattern=12 12;strokeWidth=2;" parent="238" source="168" target="61" edge="1">
                    <mxGeometry relative="1" as="geometry"/>
                </mxCell>
                <mxCell id="189" style="edgeStyle=none;html=1;endArrow=none;endFill=0;dashed=1;dashPattern=12 12;strokeWidth=2;" parent="238" source="185" target="188" edge="1">
                    <mxGeometry relative="1" as="geometry"/>
                </mxCell>
                <mxCell id="185" value="Gera a URL assinada usando o getSignedUrl() que vai expirar em 5 minutos passando os parametros:&lt;div&gt;s3 = S3Client&lt;/div&gt;&lt;div&gt;command: = consulta&lt;/div&gt;" style="whiteSpace=wrap;html=1;fillColor=#d5e8d4;rounded=1;strokeColor=#82b366;" parent="238" vertex="1">
                    <mxGeometry x="885" y="2588" width="190" height="110" as="geometry"/>
                </mxCell>
                <mxCell id="188" value="Minio" style="rounded=1;whiteSpace=wrap;html=1;fillColor=#0050ef;strokeColor=#001DBC;fontColor=#ffffff;fontSize=20;fontStyle=1" parent="238" vertex="1">
                    <mxGeometry x="510" y="2613" width="120" height="60" as="geometry"/>
                </mxCell>
                <mxCell id="215" value="" style="edgeStyle=none;html=1;" parent="238" source="190" target="214" edge="1">
                    <mxGeometry relative="1" as="geometry"/>
                </mxCell>
                <mxCell id="190" value="&lt;div&gt;&lt;b&gt;Buscar Eventos com alguns filtros pasados pelos parametros da URL&lt;/b&gt;&lt;/div&gt;&lt;p&gt;&lt;font style=&quot;color: rgb(0, 0, 0);&quot; face=&quot;Helvetica&quot;&gt;&lt;b&gt;endpoint: &quot;&lt;span style=&quot;font-size: 14px; white-space: pre;&quot;&gt;/eventos/filter&lt;/span&gt;&quot;&lt;/b&gt;&lt;/font&gt;&lt;/p&gt;" style="whiteSpace=wrap;html=1;fillColor=light-dark(#FFFFFF,#EDEDED);rounded=1;" parent="238" vertex="1">
                    <mxGeometry x="1170" y="328" width="210" height="140" as="geometry"/>
                </mxCell>
                <mxCell id="194" style="edgeStyle=orthogonalEdgeStyle;html=1;" parent="238" source="192" target="148" edge="1">
                    <mxGeometry relative="1" as="geometry"/>
                </mxCell>
                <mxCell id="192" value="O &lt;b&gt;AXIOS &lt;/b&gt;faz uma query&lt;b&gt; SQL &lt;/b&gt;selecionando&amp;nbsp;todos os registros da tabela `events` que possuem o eventId igual ao que foi passado como parametro" style="whiteSpace=wrap;html=1;fillColor=light-dark(#FFFFFF,#EDEDED);rounded=1;" parent="238" vertex="1">
                    <mxGeometry x="890" y="580" width="150" height="172" as="geometry"/>
                </mxCell>
                <mxCell id="198" style="edgeStyle=none;html=1;" parent="238" source="195" target="197" edge="1">
                    <mxGeometry relative="1" as="geometry"/>
                </mxCell>
                <mxCell id="195" value="&lt;div&gt;&lt;b&gt;Retornar todos os eventos de uma camera&lt;/b&gt;&lt;/div&gt;&lt;div&gt;&lt;b&gt;&lt;br&gt;&lt;/b&gt;&lt;/div&gt;&lt;div&gt;&lt;b style=&quot;background-color: transparent;&quot;&gt;endpoint:&amp;nbsp;&lt;/b&gt;&lt;/div&gt;&lt;div&gt;&lt;b style=&quot;background-color: transparent;&quot;&gt;&quot;&lt;span style=&quot;font-size: 14px; white-space: pre;&quot;&gt;/eventos/camera/:cameraID&lt;/span&gt;&quot;&lt;/b&gt;&lt;/div&gt;" style="whiteSpace=wrap;html=1;fillColor=light-dark(#FFFFFF,#EDEDED);rounded=1;" parent="238" vertex="1">
                    <mxGeometry x="1420" y="1360" width="300" height="140" as="geometry"/>
                </mxCell>
                <mxCell id="206" style="html=1;" parent="238" source="197" target="203" edge="1">
                    <mxGeometry relative="1" as="geometry"/>
                </mxCell>
                <mxCell id="197" value="O &lt;b&gt;AXIOS &lt;/b&gt;faz uma query&lt;b&gt; SQL &lt;/b&gt;selecionando&amp;nbsp;todos os registros da tabela `events` que possuem o cameraID igual ao que foi passado como parametro" style="whiteSpace=wrap;html=1;fillColor=light-dark(#FFFFFF,#EDEDED);rounded=1;" parent="238" vertex="1">
                    <mxGeometry x="1465" y="1720" width="230" height="172" as="geometry"/>
                </mxCell>
                <mxCell id="199" value="" style="html=1;" parent="238" source="203" target="204" edge="1">
                    <mxGeometry relative="1" as="geometry">
                        <mxPoint x="1805.9285714285716" y="2174.9285714285716" as="sourcePoint"/>
                    </mxGeometry>
                </mxCell>
                <mxCell id="200" value="ERRO" style="edgeLabel;html=1;align=center;verticalAlign=middle;resizable=0;points=[];" parent="199" vertex="1" connectable="0">
                    <mxGeometry x="-0.3624" y="2" relative="1" as="geometry">
                        <mxPoint x="-6" y="-1" as="offset"/>
                    </mxGeometry>
                </mxCell>
                <mxCell id="201" value="" style="edgeStyle=none;html=1;" parent="238" source="203" target="205" edge="1">
                    <mxGeometry relative="1" as="geometry">
                        <mxPoint x="1750" y="2119" as="sourcePoint"/>
                    </mxGeometry>
                </mxCell>
                <mxCell id="202" value="PASSOU" style="edgeLabel;html=1;align=center;verticalAlign=middle;resizable=0;points=[];" parent="201" vertex="1" connectable="0">
                    <mxGeometry x="-0.094" y="4" relative="1" as="geometry">
                        <mxPoint x="-5" y="-5" as="offset"/>
                    </mxGeometry>
                </mxCell>
                <mxCell id="203" value="Tratamento&amp;nbsp;&lt;div&gt;de&amp;nbsp;&lt;span style=&quot;color: rgb(63, 63, 63); background-color: transparent;&quot;&gt;Erro&lt;/span&gt;&lt;/div&gt;" style="rhombus;whiteSpace=wrap;html=1;fillColor=light-dark(#FFFFFF,#EDEDED);rounded=1;" parent="238" vertex="1">
                    <mxGeometry x="1670" y="2012" width="116" height="116" as="geometry"/>
                </mxCell>
                <mxCell id="204" value="Log da Mensagem do Erro no terminal&lt;div&gt;&lt;span style=&quot;color: rgb(0, 0, 0);&quot;&gt;HTTP Code: 400&lt;/span&gt;&lt;/div&gt;" style="whiteSpace=wrap;html=1;fillColor=#FF4949;rounded=1;strokeColor=#b85450;" parent="238" vertex="1">
                    <mxGeometry x="1440" y="2040" width="130" height="80" as="geometry"/>
                </mxCell>
                <mxCell id="205" value="Consulta os Registros" style="whiteSpace=wrap;html=1;fillColor=#d5e8d4;rounded=1;strokeColor=#82b366;" parent="238" vertex="1">
                    <mxGeometry x="1670" y="2210" width="120" height="60" as="geometry"/>
                </mxCell>
                <mxCell id="208" style="edgeStyle=none;html=1;endArrow=none;endFill=0;dashed=1;dashPattern=12 12;strokeWidth=2;" parent="238" source="207" target="205" edge="1">
                    <mxGeometry relative="1" as="geometry"/>
                </mxCell>
                <mxCell id="207" value="ClickHouse" style="rounded=1;whiteSpace=wrap;html=1;fillColor=#0050ef;strokeColor=#001DBC;fontColor=#ffffff;fontSize=20;fontStyle=1" parent="238" vertex="1">
                    <mxGeometry x="1660" y="2385" width="120" height="60" as="geometry"/>
                </mxCell>
                <mxCell id="212" style="html=1;" parent="238" source="209" target="211" edge="1">
                    <mxGeometry relative="1" as="geometry"/>
                </mxCell>
                <mxCell id="209" value="&lt;div style=&quot;&quot;&gt;&lt;span style=&quot;background-color: transparent;&quot;&gt;Armazena os parametros:&lt;/span&gt;&lt;/div&gt;&lt;div style=&quot;&quot;&gt;&lt;br&gt;&lt;/div&gt;&lt;div style=&quot;&quot;&gt;&lt;div style=&quot;&quot;&gt;&lt;span style=&quot;background-color: transparent; color: rgb(63, 63, 63);&quot;&gt;cameraID = Obrigatorio&lt;/span&gt;&lt;/div&gt;&lt;span style=&quot;color: rgb(63, 63, 63); background-color: transparent;&quot;&gt;&lt;div style=&quot;&quot;&gt;&lt;span style=&quot;background-color: transparent; color: rgb(63, 63, 63);&quot;&gt;limit = Opcional&lt;/span&gt;&lt;/div&gt;&lt;/span&gt;&lt;/div&gt;" style="whiteSpace=wrap;html=1;fillColor=light-dark(#FFFFFF,#EDEDED);rounded=1;align=center;" parent="238" vertex="1">
                    <mxGeometry x="2190" y="1752" width="200" height="108" as="geometry"/>
                </mxCell>
                <mxCell id="213" style="edgeStyle=orthogonalEdgeStyle;html=1;" parent="238" source="211" target="203" edge="1">
                    <mxGeometry relative="1" as="geometry"/>
                </mxCell>
                <mxCell id="211" value="O &lt;b&gt;AXIOS &lt;/b&gt;faz uma query&lt;b&gt; SQL &lt;/b&gt;selecionando a quantidade de registros passados pelo parametro `limit` os registros da tabela `events` que possuem o `cameraID` igual ao que foi passado como parametro" style="whiteSpace=wrap;html=1;fillColor=light-dark(#FFFFFF,#EDEDED);rounded=1;" parent="238" vertex="1">
                    <mxGeometry x="1960" y="1984" width="230" height="172" as="geometry"/>
                </mxCell>
                <mxCell id="219" value="" style="edgeStyle=none;html=1;" parent="238" source="214" target="218" edge="1">
                    <mxGeometry relative="1" as="geometry"/>
                </mxCell>
                <mxCell id="214" value="Faz&amp;nbsp;&lt;span style=&quot;color: rgb(0, 0, 0);&quot;&gt;uma filtragem e&lt;/span&gt;xtraindo os seguintes parametros da query:&lt;div&gt;&lt;br&gt;&lt;/div&gt;&lt;div&gt;&lt;ul&gt;&lt;li style=&quot;text-align: left;&quot;&gt;from = apartir de qual data (timestamp)&lt;/li&gt;&lt;li style=&quot;text-align: left;&quot;&gt;to = até qual data (timestamp)&lt;/li&gt;&lt;li style=&quot;text-align: left;&quot;&gt;limit = Limite maximo de Registros (por padrão 20)&lt;/li&gt;&lt;li style=&quot;text-align: left;&quot;&gt;offset = apartir de qual posição da resposta começar a puxar ( por padrão começa no primero = 0 )&lt;/li&gt;&lt;li style=&quot;text-align: left;&quot;&gt;cameraID&lt;span style=&quot;color: rgb(63, 63, 63); background-color: transparent;&quot;&gt;&amp;nbsp;= Id da Camera que quer puxar&lt;/span&gt;&lt;/li&gt;&lt;/ul&gt;&lt;/div&gt;" style="whiteSpace=wrap;html=1;fillColor=light-dark(#FFFFFF,#EDEDED);rounded=1;" parent="238" vertex="1">
                    <mxGeometry x="740" y="229" width="320" height="258" as="geometry"/>
                </mxCell>
                <mxCell id="221" value="" style="edgeStyle=none;html=1;" parent="238" source="218" target="220" edge="1">
                    <mxGeometry relative="1" as="geometry"/>
                </mxCell>
                <mxCell id="224" value="Forneceu algum&lt;div&gt;&amp;nbsp;parametro&lt;/div&gt;" style="edgeLabel;html=1;align=center;verticalAlign=middle;resizable=0;points=[];" parent="221" vertex="1" connectable="0">
                    <mxGeometry x="-0.2433" y="-1" relative="1" as="geometry">
                        <mxPoint y="-1" as="offset"/>
                    </mxGeometry>
                </mxCell>
                <mxCell id="223" value="" style="edgeStyle=none;html=1;" parent="238" source="218" target="222" edge="1">
                    <mxGeometry relative="1" as="geometry"/>
                </mxCell>
                <mxCell id="225" value="Não Forneceu&amp;nbsp;&lt;div&gt;nenhum parametro&lt;/div&gt;" style="edgeLabel;html=1;align=center;verticalAlign=middle;resizable=0;points=[];" parent="223" vertex="1" connectable="0">
                    <mxGeometry x="-0.1003" y="2" relative="1" as="geometry">
                        <mxPoint x="-1" as="offset"/>
                    </mxGeometry>
                </mxCell>
                <mxCell id="218" value="Montando&lt;div&gt;a Query&lt;/div&gt;" style="rhombus;whiteSpace=wrap;html=1;fillColor=light-dark(#FFFFFF,#EDEDED);rounded=1;" parent="238" vertex="1">
                    <mxGeometry x="390" y="250" width="110" height="98" as="geometry"/>
                </mxCell>
                <mxCell id="228" style="edgeStyle=none;html=1;" parent="238" source="220" target="226" edge="1">
                    <mxGeometry relative="1" as="geometry"/>
                </mxCell>
                <mxCell id="220" value="Monta a query passando o WHERE possuindo todos os parametros que o usuario passou" style="whiteSpace=wrap;html=1;fillColor=light-dark(#FFFFFF,#EDEDED);rounded=1;" parent="238" vertex="1">
                    <mxGeometry x="200" y="430" width="160" height="100" as="geometry"/>
                </mxCell>
                <mxCell id="227" value="" style="edgeStyle=none;html=1;" parent="238" source="222" target="226" edge="1">
                    <mxGeometry relative="1" as="geometry"/>
                </mxCell>
                <mxCell id="222" value="&lt;span style=&quot;color: rgb(0, 0, 0);&quot;&gt;Monta a query passando apenas o valor padrão de:&lt;/span&gt;&lt;div style=&quot;text-align: left;&quot;&gt;&lt;ul&gt;&lt;li&gt;&lt;span style=&quot;color: rgb(0, 0, 0);&quot;&gt;limit&lt;/span&gt;&lt;/li&gt;&lt;li&gt;&lt;span style=&quot;color: rgb(0, 0, 0);&quot;&gt;offset&lt;/span&gt;&lt;/li&gt;&lt;/ul&gt;&lt;/div&gt;" style="whiteSpace=wrap;html=1;fillColor=light-dark(#FFFFFF,#EDEDED);rounded=1;" parent="238" vertex="1">
                    <mxGeometry x="520" y="424" width="160" height="112" as="geometry"/>
                </mxCell>
                <mxCell id="229" style="edgeStyle=orthogonalEdgeStyle;html=1;" parent="238" source="226" target="148" edge="1">
                    <mxGeometry relative="1" as="geometry"/>
                </mxCell>
                <mxCell id="226" value="AXIOS faz a requisição no clickhouse" style="whiteSpace=wrap;html=1;fillColor=light-dark(#FFFFFF,#EDEDED);rounded=1;" parent="238" vertex="1">
                    <mxGeometry x="410" y="692" width="120" height="60" as="geometry"/>
                </mxCell>
                <mxCell id="4" value="Ligar o APP" style="rounded=1;whiteSpace=wrap;html=1;fillColor=light-dark(#FFFFFF,#EDEDED);" parent="238" vertex="1">
                    <mxGeometry x="2310" y="169" width="120" height="60" as="geometry"/>
                </mxCell>
                <mxCell id="243" value="" style="edgeStyle=none;html=1;" parent="1" source="239" target="242" edge="1">
                    <mxGeometry relative="1" as="geometry"/>
                </mxCell>
                <mxCell id="248" value="BUCKET já existe&lt;div&gt;no MinIO&lt;/div&gt;" style="edgeLabel;html=1;align=center;verticalAlign=middle;resizable=0;points=[];" parent="243" vertex="1" connectable="0">
                    <mxGeometry x="0.0841" y="-1" relative="1" as="geometry">
                        <mxPoint as="offset"/>
                    </mxGeometry>
                </mxCell>
                <mxCell id="245" value="" style="edgeStyle=none;html=1;" parent="1" source="239" target="244" edge="1">
                    <mxGeometry relative="1" as="geometry"/>
                </mxCell>
                <mxCell id="249" value="Falhou apos&lt;div&gt;as 10 tentativas&lt;/div&gt;" style="edgeLabel;html=1;align=center;verticalAlign=middle;resizable=0;points=[];" parent="245" vertex="1" connectable="0">
                    <mxGeometry x="0.0362" y="-3" relative="1" as="geometry">
                        <mxPoint as="offset"/>
                    </mxGeometry>
                </mxCell>
                <mxCell id="239" value="Tratamento de erros" style="rhombus;whiteSpace=wrap;html=1;fillColor=light-dark(#FFFFFF,#EDEDED);rounded=1;" parent="1" vertex="1">
                    <mxGeometry x="-550" y="-1270" width="110" height="110" as="geometry"/>
                </mxCell>
                <mxCell id="252" style="edgeStyle=none;html=1;" parent="1" source="242" target="250" edge="1">
                    <mxGeometry relative="1" as="geometry"/>
                </mxCell>
                <mxCell id="242" value="Loga no console que o bucket já existe" style="whiteSpace=wrap;html=1;fillColor=light-dark(#FFFFFF,#EDEDED);rounded=1;" parent="1" vertex="1">
                    <mxGeometry x="-680" y="-1490" width="120" height="60" as="geometry"/>
                </mxCell>
                <mxCell id="251" style="edgeStyle=none;html=1;" parent="1" source="244" target="250" edge="1">
                    <mxGeometry relative="1" as="geometry"/>
                </mxCell>
                <mxCell id="244" value="Loga no Console que aconteceu um Erro" style="whiteSpace=wrap;html=1;fillColor=light-dark(#FFFFFF,#EDEDED);rounded=1;" parent="1" vertex="1">
                    <mxGeometry x="-710" y="-1100" width="120" height="60" as="geometry"/>
                </mxCell>
                <mxCell id="250" value="FIM" style="ellipse;whiteSpace=wrap;html=1;aspect=fixed;fillColor=#000000;fontColor=#FFFFFF;fontStyle=1" parent="1" vertex="1">
                    <mxGeometry x="-900" y="-1400" width="80" height="80" as="geometry"/>
                </mxCell>
                <mxCell id="257" style="edgeStyle=none;html=1;endArrow=none;endFill=0;dashed=1;dashPattern=12 12;" parent="1" source="253" target="255" edge="1">
                    <mxGeometry relative="1" as="geometry"/>
                </mxCell>
                <mxCell id="259" value="" style="edgeStyle=none;html=1;" parent="1" source="253" target="260" edge="1">
                    <mxGeometry relative="1" as="geometry"/>
                </mxCell>
                <mxCell id="253" value="Estabelece conexão com o Kafka" style="whiteSpace=wrap;html=1;fillColor=light-dark(#FFFFFF,#EDEDED);rounded=1;" parent="1" vertex="1">
                    <mxGeometry x="770" y="-1830" width="120" height="60" as="geometry"/>
                </mxCell>
                <mxCell id="255" value="Kafka" style="rounded=1;whiteSpace=wrap;html=1;fillColor=#0050ef;strokeColor=#001DBC;fontColor=#ffffff;fontSize=20;fontStyle=1" parent="1" vertex="1">
                    <mxGeometry x="770" y="-2070" width="120" height="60" as="geometry"/>
                </mxCell>
                <mxCell id="256" value="Zookeeper" style="rounded=1;whiteSpace=wrap;html=1;fillColor=#0050ef;strokeColor=#001DBC;fontColor=#ffffff;fontSize=20;fontStyle=1" parent="1" vertex="1">
                    <mxGeometry x="150" y="-1860" width="120" height="60" as="geometry"/>
                </mxCell>
                <mxCell id="265" style="edgeStyle=none;html=1;" parent="1" source="258" target="262" edge="1">
                    <mxGeometry relative="1" as="geometry"/>
                </mxCell>
                <mxCell id="258" value="Loga no console que esta rodando o consumer" style="whiteSpace=wrap;html=1;fillColor=light-dark(#FFFFFF,#EDEDED);rounded=1;" parent="1" vertex="1">
                    <mxGeometry x="1035" y="-1670" width="120" height="60" as="geometry"/>
                </mxCell>
                <mxCell id="264" style="edgeStyle=none;html=1;" parent="1" source="260" target="258" edge="1">
                    <mxGeometry relative="1" as="geometry"/>
                </mxCell>
                <mxCell id="260" value="Inscreve o consumidor no topico &#39;devide-events&#39; lendo apenas as mensagens novas que estão sendo enviadas apartir do momento que é ligado" style="whiteSpace=wrap;html=1;fillColor=light-dark(#FFFFFF,#EDEDED);rounded=1;" parent="1" vertex="1">
                    <mxGeometry x="1000" y="-1860" width="190" height="120" as="geometry"/>
                </mxCell>
                <mxCell id="267" value="" style="edgeStyle=none;html=1;" edge="1" parent="1" source="262" target="266">
                    <mxGeometry relative="1" as="geometry"/>
                </mxCell>
                <mxCell id="262" value="Inicia o consumer" style="whiteSpace=wrap;html=1;fillColor=light-dark(#FFFFFF,#EDEDED);rounded=1;" parent="1" vertex="1">
                    <mxGeometry x="1250" y="-1670" width="120" height="60" as="geometry"/>
                </mxCell>
                <mxCell id="269" value="" style="edgeStyle=none;html=1;" edge="1" parent="1" source="266" target="268">
                    <mxGeometry relative="1" as="geometry"/>
                </mxCell>
                <mxCell id="266" value="O consumer fica escutando tudo&amp;nbsp; que entra no kafka e verifica se recebeu uma nova mensagem" style="whiteSpace=wrap;html=1;fillColor=light-dark(#FFFFFF,#EDEDED);rounded=1;" vertex="1" parent="1">
                    <mxGeometry x="1470" y="-1690" width="190" height="110" as="geometry"/>
                </mxCell>
                <mxCell id="272" style="edgeStyle=none;html=1;" edge="1" parent="1" source="268" target="270">
                    <mxGeometry relative="1" as="geometry"/>
                </mxCell>
                <mxCell id="268" value="Pega a mensagem recebeu do Kafka e armazena seus valores convertidos em JSON num Buffer" style="whiteSpace=wrap;html=1;fillColor=light-dark(#FFFFFF,#EDEDED);rounded=1;" vertex="1" parent="1">
                    <mxGeometry x="1730" y="-1685" width="160" height="90" as="geometry"/>
                </mxCell>
                <mxCell id="274" value="" style="edgeStyle=none;html=1;" edge="1" parent="1" source="270" target="273">
                    <mxGeometry relative="1" as="geometry"/>
                </mxCell>
                <mxCell id="270" value="Loga no console que recebeu uma nova Mensagem" style="whiteSpace=wrap;html=1;fillColor=light-dark(#FFFFFF,#EDEDED);rounded=1;" vertex="1" parent="1">
                    <mxGeometry x="1960" y="-1665" width="120" height="60" as="geometry"/>
                </mxCell>
                <mxCell id="273" value="Loga no console seus valores" style="whiteSpace=wrap;html=1;fillColor=light-dark(#FFFFFF,#EDEDED);rounded=1;" vertex="1" parent="1">
                    <mxGeometry x="2160" y="-1665" width="120" height="60" as="geometry"/>
                </mxCell>
            </root>
        </mxGraphModel>
    </diagram>
</mxfile>